<svg width="426" height="430" viewBox="0 0 426 430" fill="none" xmlns="http://www.w3.org/2000/svg">
<path fill-rule="evenodd" clip-rule="evenodd" d="M202.843 1.065C194.304 2.226 180.796 7.11701 174.288 11.402C171.493 13.243 136.24 40.777 95.949 72.588C16.802 135.078 15.247 136.472 7.99299 151.5C0.0339937 167.988 0.499994 160.625 0.499994 270C0.499994 360.841 0.622994 367.932 2.29799 373.831C9.90799 400.62 29.38 420.092 56.169 427.702C62.137 429.397 71.141 429.5 213 429.5C354.859 429.5 363.863 429.397 369.831 427.702C396.62 420.092 416.092 400.62 423.702 373.831C425.377 367.932 425.5 360.841 425.5 270C425.5 160.625 425.966 167.988 418.007 151.5C410.676 136.312 409.044 134.846 330.453 72.807C290.525 41.288 255.696 14.047 253.056 12.271C247.645 8.631 235.672 3.593 228.963 2.133C221.781 0.570004 210.019 0.089003 202.843 1.065ZM226.297 22.489C229.441 23.308 234.598 25.297 237.757 26.908C245.112 30.66 382.481 138.938 390.656 147.427C397.056 154.073 402.069 162.992 403.921 171.028C404.588 173.925 404.96 208.804 404.976 270.068C404.997 354.194 404.822 365.237 403.388 370.068C397.901 388.55 384.55 401.901 366.068 407.388C361.179 408.839 345.896 409 213 409C80.104 409 64.821 408.839 59.932 407.388C41.45 401.901 28.099 388.55 22.612 370.068C21.178 365.237 21.003 354.194 21.024 270.068C21.04 208.804 21.412 173.925 22.079 171.028C23.935 162.976 28.941 154.075 35.344 147.446C43.575 138.924 180.927 30.657 188.275 26.899C191.45 25.275 196.4 23.313 199.275 22.539C206.22 20.668 219.215 20.644 226.297 22.489ZM152.923 337.923C150.631 340.216 150 341.742 150 345C150 348.258 150.631 349.784 152.923 352.077L155.846 355H213H270.154L273.077 352.077C277.193 347.961 277.193 342.039 273.077 337.923L270.154 335H213H155.846L152.923 337.923Z" fill="black"/>
</svg>
